<svg width="40" height="40" viewBox="0 0 40 40" fill="none" xmlns="http://www.w3.org/2000/svg">
<path d="M14 20.2354C14.0127 19.8037 14.165 19.4355 14.5078 19.1055L24.4102 9.41895C24.6768 9.13965 25.0322 9 25.4385 9C26.2637 9 26.9111 9.63477 26.9111 10.46C26.9111 10.8662 26.7461 11.2344 26.4668 11.5264L17.542 20.2354L26.4668 28.9443C26.7461 29.2236 26.9111 29.5918 26.9111 29.998C26.9111 30.8359 26.2637 31.4707 25.4385 31.4707C25.0322 31.4707 24.6768 31.3311 24.4102 31.0518L14.5078 21.3652C14.165 21.0352 14 20.667 14 20.2354Z" fill="#181818"/>
</svg>
