<svg width="42" height="42" viewBox="0 0 42 42" fill="none" xmlns="http://www.w3.org/2000/svg">
<path d="M14 21.2354C14.0127 20.8037 14.165 20.4355 14.5078 20.1055L24.4102 10.4189C24.6768 10.1396 25.0322 10 25.4385 10C26.2637 10 26.9111 10.6348 26.9111 11.46C26.9111 11.8662 26.7461 12.2344 26.4668 12.5264L17.542 21.2354L26.4668 29.9443C26.7461 30.2236 26.9111 30.5918 26.9111 30.998C26.9111 31.8359 26.2637 32.4707 25.4385 32.4707C25.0322 32.4707 24.6768 32.3311 24.4102 32.0518L14.5078 22.3652C14.165 22.0352 14 21.667 14 21.2354Z" fill="#D03E00"/>
</svg>
