<svg width="24" height="24" viewBox="0 0 24 24" fill="none" xmlns="http://www.w3.org/2000/svg">
<g clip-path="url(#clip0_28_499)">
<g clip-path="url(#clip1_28_499)">
<path d="M11.9795 21.0693C9.65213 21.0693 8.08825 19.333 7.74346 17.609L7.20164 14.9246L5.57619 12.7327C4.56644 11.3658 4 9.67881 4 7.97948C4 3.58338 7.58338 0 11.9795 0C16.3756 0 19.959 3.58338 19.959 7.97948C19.959 9.66649 19.4048 11.3535 18.3828 12.7327L16.7573 14.9246L16.2155 17.5967C15.8707 19.3207 14.2945 21.057 11.9795 21.057V21.0693Z" fill="#FFE58B"/>
<path d="M11.3269 19.5546L9.65216 11.3781C9.65216 11.3781 9.27043 9.21088 10.8343 9.06311C12.6198 8.90303 13.4695 14.1242 11.7948 13.5824C10.7235 13.2376 11.8194 9.11237 13.568 9.34633C15.3166 9.5803 14.4669 11.8338 14.4669 11.8338L12.4351 19.6532" stroke="#F4B158" stroke-width="0.5" stroke-miterlimit="10"/>
<path d="M7.53418 16.6362L8.30996 22.5962L15.5013 22.0174L16.3387 17.0672L7.53418 16.6362Z" fill="#AD9FA0"/>
<path d="M11.7824 24C13.1425 24 14.2452 22.8974 14.2452 21.5372C14.2452 20.177 13.1425 19.0744 11.7824 19.0744C10.4222 19.0744 9.31958 20.177 9.31958 21.5372C9.31958 22.8974 10.4222 24 11.7824 24Z" fill="#AD9FA0"/>
<path d="M7.90356 18.2494L15.8461 18.6557" stroke="#7C7071" stroke-width="0.5" stroke-miterlimit="10" stroke-linecap="round"/>
<path d="M8.16211 20.3427L15.5505 20.1703" stroke="#7C7071" stroke-width="0.5" stroke-miterlimit="10" stroke-linecap="round"/>
<path d="M9.67676 22.51L14.0236 22.079" stroke="#7C7071" stroke-width="0.5" stroke-miterlimit="10" stroke-linecap="round"/>
</g>
</g>
<defs>
<clipPath id="clip0_28_499">
<rect width="24" height="24" fill="white"/>
</clipPath>
<clipPath id="clip1_28_499">
<rect width="15.959" height="24" fill="white" transform="translate(4)"/>
</clipPath>
</defs>
</svg>
