<svg width="65" height="30" viewBox="0 0 65 30" fill="none" xmlns="http://www.w3.org/2000/svg">
<path d="M24.4345 12.0493H20.4181V0.0150146H24.4345V2.02072H22.4238V10.0436H24.4345V12.0493Z" fill="#D03E00"/>
<path d="M45.5196 12.0493H41.463V10.0436H43.5138V2.02072H41.463V0.0150146H45.5196V12.0493Z" fill="#D03E00"/>
<path d="M28.6665 12.0593H26.5255L31.0985 0.0100098H33.2446L28.6665 12.0593Z" fill="#FD9800"/>
<path d="M34.8441 12.0593H32.698L37.271 0.0100098H39.4171L34.8441 12.0593Z" fill="#FD9800"/>
<path d="M13.4332 12.0643H10.8208L15.8451 6.03217L10.8208 0H13.4282L18.4575 6.03217L13.4332 12.0643Z" fill="#D03E00"/>
<path d="M52.5747 12.0643H55.1821L50.1578 6.03217L55.1871 0H52.5747L47.5453 6.03217L52.5747 12.0643Z" fill="#D03E00"/>
<path d="M7.92255 19.0442C7.00995 19.0442 6.1826 19.4203 5.59091 20.027C4.99923 19.4203 4.17187 19.0442 3.25928 19.0442C2.75785 19.0442 2.28651 19.1595 1.86029 19.3651V19.0442H0V26.5506H1.86029V22.3035C1.86029 21.5313 2.48708 20.9045 3.25928 20.9045C4.03147 20.9045 4.65826 21.5313 4.65826 22.3035V26.5506H6.51855V22.3035C6.51855 21.5313 7.14534 20.9045 7.91753 20.9045C8.68973 20.9045 9.31652 21.5313 9.31652 22.3035V26.5506H11.1768V22.3035C11.1768 20.5033 9.71264 19.0442 7.91753 19.0442H7.92255Z" fill="#D03E00"/>
<path d="M16.3114 20.5635V19.1646H14.4511H12.5908V20.5635H14.4511V25.1666H12.5908V26.5656H18.1767V25.1666H16.3114V20.5635Z" fill="#D03E00"/>
<path d="M15.3838 18.2118C16.0256 18.2118 16.5471 17.6903 16.5471 17.0485C16.5471 16.4067 16.0256 15.8852 15.3838 15.8852C14.7419 15.8852 14.2205 16.4067 14.2205 17.0485C14.2205 17.6903 14.7419 18.2118 15.3838 18.2118Z" fill="#D03E00"/>
<path d="M46.8684 19.1144C44.8126 19.1144 43.1428 20.7841 43.1428 22.84C43.1428 24.8958 44.8126 26.5656 46.8684 26.5656C48.9243 26.5656 50.594 24.8958 50.594 22.84C50.594 20.7841 48.9243 19.1144 46.8684 19.1144ZM46.8684 24.7003C45.8405 24.7003 45.0081 23.8629 45.0081 22.84C45.0081 21.8171 45.8455 20.9797 46.8684 20.9797C47.8913 20.9797 48.7287 21.8171 48.7287 22.84C48.7287 23.8629 47.8913 24.7003 46.8684 24.7003Z" fill="#D03E00"/>
<path d="M55.1169 19.0392C54.44 19.0392 53.8032 19.2247 53.2566 19.5456V19.0492H51.3963V29.3535H53.2566V25.9839C53.8032 26.3049 54.44 26.4904 55.1169 26.4904C57.1727 26.4904 58.8425 24.8206 58.8425 22.7648C58.8425 20.7089 57.1727 19.0392 55.1169 19.0392ZM55.1169 24.6251C54.089 24.6251 53.2566 23.7877 53.2566 22.7648C53.2566 21.7419 54.094 20.9045 55.1169 20.9045C56.1398 20.9045 56.9772 21.7419 56.9772 22.7648C56.9772 23.7877 56.1398 24.6251 55.1169 24.6251Z" fill="#D03E00"/>
<path d="M62.6684 21.9023V21.9124H61.7157C61.4549 21.9124 61.2443 21.7018 61.2443 21.441C61.2443 21.1803 61.4549 20.9697 61.7157 20.9697H64.98V19.1094H61.7157C60.432 19.1094 59.384 20.1574 59.384 21.441C59.384 22.7247 60.432 23.7726 61.7157 23.7726H62.6684V23.7626C62.9291 23.7626 63.1397 23.9732 63.1397 24.234C63.1397 24.4947 62.9291 24.7053 62.6684 24.7053H59.4041V26.5656H62.6684C63.952 26.5656 65 25.5176 65 24.234C65 22.9503 63.952 21.9023 62.6684 21.9023Z" fill="#D03E00"/>
<path d="M25.0112 19.0944L23.1158 21.3708L21.2204 19.0944H18.7935L21.9023 22.825L18.7935 26.5506L21.2103 26.5656L23.1158 24.2791L25.0212 26.5656L27.433 26.5506L24.3292 22.825L27.433 19.0944H25.0112Z" fill="#D03E00"/>
<path d="M35.0548 15.3838H33.1945V19.6108C32.6479 19.2949 32.0111 19.1094 31.3342 19.1094C29.2783 19.1094 27.6086 20.7791 27.6086 22.835C27.6086 24.8908 29.2783 26.5606 31.3342 26.5606C32.0111 26.5606 32.6479 26.3751 33.1945 26.0542V26.5506H35.0548V19.0442V15.3838ZM31.3342 24.6953C30.3063 24.6953 29.4739 23.8579 29.4739 22.835C29.4739 21.8121 30.3113 20.9747 31.3342 20.9747C32.3571 20.9747 33.1744 21.792 33.1945 22.7999V22.84C33.1945 23.8679 32.3571 24.7003 31.3342 24.7003V24.6953Z" fill="#D03E00"/>
<path d="M41.112 19.1245C40.4351 19.1245 39.7982 19.31 39.2517 19.6259V19.1345H36.4587V20.5335H37.3914V22.83C37.3914 22.83 37.3914 22.845 37.3914 22.8501V25.1717H36.4587V26.5706H40.5253V25.1717H39.2517V22.84C39.2567 21.8171 40.0891 20.9898 41.112 20.9898H41.2424V21.9224H42.6413V19.1295H41.117L41.112 19.1245Z" fill="#D03E00"/>
</svg>
