<svg width="42" height="42" viewBox="0 0 42 42" fill="none" xmlns="http://www.w3.org/2000/svg">
<path d="M28 21.2354C27.9873 20.8037 27.835 20.4355 27.4922 20.1055L17.5898 10.4189C17.3232 10.1396 16.9678 10 16.5615 10C15.7363 10 15.0889 10.6348 15.0889 11.46C15.0889 11.8662 15.2539 12.2344 15.5332 12.5264L24.458 21.2354L15.5332 29.9443C15.2539 30.2236 15.0889 30.5918 15.0889 30.998C15.0889 31.8359 15.7363 32.4707 16.5615 32.4707C16.9678 32.4707 17.3232 32.3311 17.5898 32.0518L27.4922 22.3652C27.835 22.0352 28 21.667 28 21.2354Z" fill="#D03E00"/>
</svg>
