<svg width="168" height="188" viewBox="0 0 168 188" fill="none" xmlns="http://www.w3.org/2000/svg">
<path d="M11.9688 5.26562V10.8906H14.1406V12.3281H11.9688V19.3906H10.25V5.26562H11.9688ZM0.828125 8.82812V7.4375H4.17188V5.46875H5.90625V7.4375H9.15625V8.82812H0.828125ZM1.48438 13.0781C1.46875 11.125 2.98438 9.74219 5.04688 9.75C7.07812 9.74219 8.58594 11.125 8.59375 13.0781C8.58594 15.0234 7.07812 16.3906 5.04688 16.3906C2.98438 16.3906 1.46875 15.0234 1.48438 13.0781ZM3.14062 13.0781C3.13281 14.2266 3.9375 14.9609 5.04688 14.9531C6.13281 14.9609 6.92188 14.2266 6.9375 13.0781C6.92188 11.9297 6.13281 11.1719 5.04688 11.1719C3.9375 11.1719 3.13281 11.9297 3.14062 13.0781ZM20.4531 14.2656C19.7812 14.2656 19.2266 13.7188 19.2344 13.0469C19.2266 12.3906 19.7812 11.8516 20.4531 11.8438C21.1016 11.8516 21.6562 12.3906 21.6562 13.0469C21.6562 13.7188 21.1016 14.2656 20.4531 14.2656ZM38.4844 5.75V9.76562H30.375V11.1719H38.7969V12.5625H28.625V8.45312H36.7031V7.15625H28.5938V5.75H38.4844ZM27.0781 15.1562V13.7656H39.9844V15.1562H34.375V19.4062H32.6406V15.1562H27.0781ZM46.6406 14.2656C45.9688 14.2656 45.4141 13.7188 45.4219 13.0469C45.4141 12.3906 45.9688 11.8516 46.6406 11.8438C47.2891 11.8516 47.8438 12.3906 47.8438 13.0469C47.8438 13.7188 47.2891 14.2656 46.6406 14.2656ZM65.4688 5.26562V19.3906H63.7969V5.26562H65.4688ZM53.4219 11.375C53.4219 8.26562 54.625 6.33594 56.4688 6.34375C58.1797 6.33594 59.3438 7.9375 59.5469 10.5781H60.9062V5.51562H62.5625V18.7031H60.9062V11.9844H59.5625C59.3984 14.7422 58.2188 16.4297 56.4688 16.4219C54.625 16.4297 53.4219 14.4922 53.4219 11.375ZM55.0312 11.375C55.0234 13.5859 55.5703 14.7734 56.4688 14.7656C57.4062 14.7734 57.9609 13.5859 57.9688 11.375C57.9609 9.17188 57.4062 7.97656 56.4688 7.98438C55.5703 7.97656 55.0234 9.17188 55.0312 11.375ZM72.8281 14.2656C72.1562 14.2656 71.6016 13.7188 71.6094 13.0469C71.6016 12.3906 72.1562 11.8516 72.8281 11.8438C73.4766 11.8516 74.0312 12.3906 74.0312 13.0469C74.0312 13.7188 73.4766 14.2656 72.8281 14.2656ZM83.9375 18.1562C81.5234 18.1562 79.7969 16.8438 79.75 14.9375H81.7969C81.8516 15.8438 82.7578 16.4453 83.9375 16.4375C85.1797 16.4453 86.0781 15.7578 86.0781 14.75C86.0781 13.7344 85.2031 13.0078 83.7344 13H82.7188V11.4375H83.7344C84.9375 11.4375 85.7734 10.7656 85.7656 9.78125C85.7734 8.82812 85.0547 8.1875 83.9531 8.1875C82.8906 8.1875 81.9766 8.78125 81.9375 9.73438H79.9844C80.0312 7.83594 81.7578 6.53125 83.9688 6.53125C86.2656 6.53125 87.75 7.9375 87.7344 9.67188C87.75 10.9375 86.9062 11.8516 85.6719 12.1094V12.2031C87.2656 12.4141 88.1719 13.4375 88.1562 14.8594C88.1719 16.7734 86.3828 18.1562 83.9375 18.1562ZM95.1875 14.2656C94.5156 14.2656 93.9609 13.7188 93.9688 13.0469C93.9609 12.3906 94.5156 11.8516 95.1875 11.8438C95.8359 11.8516 96.3906 12.3906 96.3906 13.0469C96.3906 13.7188 95.8359 14.2656 95.1875 14.2656ZM114.719 12.5781V13.9688H109.266V16.4062H107.547V13.9688H101.812V12.5781H114.719ZM103.375 19.1094V15.2188H105.094V17.7031H113.297V19.1094H103.375ZM103.5 11.4688V5.71875H105.219V7.3125H111.312V5.71875H113.031V11.4688H103.5ZM105.219 10.0938H111.312V8.60938H105.219V10.0938ZM121.375 14.2656C120.703 14.2656 120.148 13.7188 120.156 13.0469C120.148 12.3906 120.703 11.8516 121.375 11.8438C122.023 11.8516 122.578 12.3906 122.578 13.0469C122.578 13.7188 122.023 14.2656 121.375 14.2656ZM132.422 7.89062C132.43 9.41406 133.32 10.9531 135.172 11.6562L134.25 12.9844C132.992 12.5078 132.117 11.6016 131.609 10.5078C131.094 11.7656 130.172 12.8438 128.828 13.4062L127.891 12.0781C129.836 11.2188 130.742 9.45312 130.75 7.89062V6.14062H132.422V7.89062ZM130.484 16.7656C130.477 15.1406 132.352 14.1719 135.328 14.1719C138.281 14.1719 140.164 15.1406 140.172 16.7656C140.164 18.3984 138.281 19.375 135.328 19.375C132.352 19.375 130.477 18.3984 130.484 16.7656ZM132.219 16.7656C132.211 17.6016 133.367 18.0547 135.328 18.0469C137.258 18.0547 138.414 17.6016 138.422 16.7656C138.414 15.9375 137.258 15.4844 135.328 15.4844C133.367 15.4844 132.211 15.9375 132.219 16.7656ZM135.406 13.5V5.54688H137.031V8.84375H138.438V5.28125H140.094V13.9375H138.438V10.2656H137.031V13.5H135.406ZM147.562 14.2656C146.891 14.2656 146.336 13.7188 146.344 13.0469C146.336 12.3906 146.891 11.8516 147.562 11.8438C148.211 11.8516 148.766 12.3906 148.766 13.0469C148.766 13.7188 148.211 14.2656 147.562 14.2656ZM165.344 5.26562V8.67188H167.312V10.125H165.344V13.5H163.609V5.26562H165.344ZM154.062 12.0938C157.359 11.2422 159.242 9.55469 159.539 7.5H154.766V6.09375H161.406C161.398 9.79688 158.992 12.3516 154.781 13.4219L154.062 12.0938ZM155.938 15.4844V14.0938H165.344V19.3906H163.609V15.4844H155.938Z" fill="#D03E00"/>
<path d="M47.0781 133.375C47.0781 139.484 49.4023 145.494 56.6406 148.881V124.277H66.4688V137.293H69.6562V123.281H79.75V160.602H69.6562V145.859H66.4688V158.676H56.6406V151.338L52.3242 157.547C47.543 155.754 44.2559 152.566 42.0977 148.615C39.9062 153.463 36.3203 157.414 30.875 159.605L25.1641 151.438C34.1621 147.52 36.6855 140.182 36.7188 133.375V126.867H47.0781V133.375ZM36.7188 172.82C36.6855 165.549 45.1855 161.066 58.3008 161.066C71.416 161.066 80.0156 165.549 80.082 172.82C80.0156 180.158 71.416 184.707 58.3008 184.707C45.1855 184.707 36.6855 180.158 36.7188 172.82ZM47.3438 172.82C47.3438 175.609 51.1621 176.738 58.3008 176.738C65.4727 176.738 69.291 175.609 69.3242 172.82C69.291 170.131 65.4727 168.902 58.3008 168.969C51.1621 168.902 47.3438 170.131 47.3438 172.82ZM134.535 123.148V136.762H142.172V145.527H134.535V158.609H123.844V123.148H134.535ZM84.0664 150.84C97.2148 147.719 103.988 141.609 105.383 134.703H87.5195V126.336H117.004C116.971 143.27 107.043 154.393 88.4492 158.875L84.0664 150.84ZM92.5 169.301V160.934H134.535V184.574H123.844V169.301H92.5Z" fill="#D03E00"/>
<g clip-path="url(#clip0_28_1473)">
<path d="M123.54 61.1876V61.2C122.928 60.7546 122.185 60.4763 121.369 60.4763H112.394C109.845 60.4763 107.755 62.468 107.6 64.9794H102.089V64.1938C102.089 62.1588 100.443 60.5134 98.4082 60.5134H89.4329C87.4906 60.5134 85.8144 61.6763 85.0597 63.3402C84.9669 63.2907 84.8803 63.2474 84.7875 63.1979C81.9979 57.7423 76.3257 54 69.7937 54H50.1051C48.4226 54 46.9566 55.1381 46.5422 56.7649L44.0927 66.334C43.8638 67.2247 43.9876 68.1588 44.4082 68.9567L44.4267 68.9876C44.5133 69.1423 44.6061 69.2969 44.7113 69.4392L45.9793 71.4557H45.6391C43.9566 71.4557 42.4906 72.5938 42.0762 74.2206L39.8123 83.0536C39.5896 83.9196 39.701 84.8289 40.0906 85.6144L40.1216 85.6701C40.2205 85.8619 40.3381 86.0536 40.4741 86.2268L42.2247 89.0103H41.1484C39.4659 89.0103 37.9999 90.1485 37.5855 91.7753L35.1174 101.351C34.87 102.309 35.0247 103.324 35.5319 104.165C35.5319 104.171 35.5443 104.177 35.5443 104.19L41.303 113.307H76.7401C82.4618 113.307 87.5401 110.505 90.6762 106.2V106.398C90.6762 110.592 94.0845 114 98.2783 114H132.416V67.8371L123.546 61.1814L123.54 61.1876Z" fill="#D03E00"/>
<path d="M82.9381 70.8248C82.9381 63.5629 77.0495 57.6804 69.7938 57.6804H50.1052L47.6557 67.2495H66.4845C68.6619 67.2495 70.4309 69.0186 70.4309 71.1959C70.4309 73.3732 68.6619 75.1423 66.4845 75.1423H45.6268L43.3629 83.9753H66.0577C68.4639 83.9753 70.4186 85.9299 70.4186 88.3361C70.4186 90.7423 68.4639 92.6969 66.0577 92.6969H41.1299L38.6804 102.266H69.3732C76.8639 102.266 82.9381 96.1918 82.9381 88.701C82.9381 85.2371 80.8907 82.0825 78.7505 79.6825C80.8907 77.3443 82.9381 74.2392 82.9381 70.8248Z" fill="white"/>
<path d="M89.3464 83.3876C87.6268 83.3876 86.2289 84.7856 86.2289 86.5052C86.2289 88.2247 87.6268 89.6227 89.3464 89.6227H103.882V94.9052H110.39V89.6227H124.035V83.3876H89.3526H89.3464Z" fill="white"/>
<path d="M98.2845 93.5567V91.3113H89.9278C89.3093 91.3113 88.8021 91.8124 88.8021 92.4371C88.8021 93.0619 89.3031 93.5629 89.9278 93.5629H91.4062V99.0433C91.4062 101.208 93.1629 102.965 95.3278 102.965H122.198V96.4268H98.2784V93.5629L98.2845 93.5567Z" fill="white"/>
<path d="M89.4268 66.4392H91.3753L91.4 77.8948C91.4 80.0536 93.1567 81.8041 95.3216 81.8041H121.369V64.1505H112.394C111.775 64.1505 111.268 64.6515 111.268 65.2763C111.268 65.901 111.769 66.4021 112.394 66.4021H114.336V68.6536H98.4021V64.1876H89.4268C88.8082 64.1876 88.301 64.6887 88.301 65.3134C88.301 65.9381 88.8021 66.4392 89.4268 66.4392ZM114.336 74.2021V75.5753H98.4021V74.2021H114.336Z" fill="white"/>
</g>
<defs>
<clipPath id="clip0_28_1473">
<rect width="97.4165" height="60" fill="white" transform="translate(35 54)"/>
</clipPath>
</defs>
</svg>
